<?xml version="1.0"?><svg version="1.2" baseProfile="tiny-ps" viewBox="0 0 300 300" xmlns="http://www.w3.org/2000/svg" xmlns:xlink="http://www.w3.org/1999/xlink"><title>OZ Listings</title><g><g fill="#fefefe" transform="matrix(.1 0 0 -.1 0 300)"><path d="M0 1500V0h3000v3000H0V1500z"/></g><g fill="#cfdce5" transform="matrix(.1 0 0 -.1 0 300)"><path d="M770 2069c-47-4-126-17-177-29l-92-21-88-43-88-43-45-49c-61-65-84-105-110-189l-21-70-6-107-6-106 12-64c7-35 24-87 38-116l25-53 54-58 53-58 58-30c180-95 315-119 663-114l135 1 86 15c101 18 174 41 273 89l72 35 48 51 48 51 33 72c18 40 38 96 44 125l11 53v174l-15 63c-8 34-29 90-46 123l-31 62-51 49c-29 28-71 61-93 74-95 56-260 101-430 119l-62 7-6-11-7-10-25 9-25 10-72-1c-40-1-110-5-157-10zm360-289 116-9 44-16c24-8 58-26 76-40 17-13 34-22 37-19s11-11 18-33l11-38 5-111 5-111-22-52-23-52-42-29-41-29-65-17-64-18H765l-77 18-76 17-41 29-40 29-4-12-4-12-18 60-18 60-5 70-4 71 12 58 12 59 40 43 40 43 48 16c93 31 303 41 500 25zm-509-657 14-18-17 14c-10 7-18 15-18 17 0 8 8 3 21-13zm120-120 14-18-17 14c-10 7-18 15-18 17 0 8 8 3 21-13zm864 1056c-4-6-5-11-4-13 95-59 162-126 209-209l32-57 191-2 192-3-99-75c-55-41-129-98-165-125l-66-50-7-95-8-95-19-65-20-65-36-60c-42-70-92-125-153-167-24-16-41-32-39-34 3-3 107-5 233-4h525l297-1 20 33c12 18 53 76 91 128 39 52 71 101 71 107v13l-416 2-415 3 127 100c70 55 154 120 185 145s141 110 244 190l187 145 24 41 24 41v95l-33 33-33 33-39 11-40 11h-474l-6-9-5-10-33 10-32 9h-504l-6-11z"/></g><g fill="#81aecd" transform="matrix(.1 0 0 -.1 0 300)"><path d="M720 2059c-205-26-385-104-460-198-43-55-77-128-97-207l-17-69v-120l1-120 21-57c11-32 38-83 58-114l38-57 58-42 57-43 76-32 77-31 86-19c48-10 121-21 162-24l75-6-19 12c-10 7-45 30-77 51l-57 38-54 58-54 57-36 70c-20 38-46 98-57 133l-21 64v180l12 41 13 41 40 41 41 40 64 20 65 19h490l60-18 60-19 33-25c18-14 35-23 38-21 2 3-12 38-33 79l-36 74-68 67-68 67-84 40-83 41-120-1c-65-1-148-5-184-10zm395-20c201-102 314-278 332-519l6-76-17-57-17-57-29-34-30-33-48-21c-26-11-78-26-115-32l-67-12-207 4-208 5-66 21-66 22-18 20c-10 11-22 20-27 20h-8l15-37c25-61 80-137 142-198l58-56 78-40 79-39h102c194 0 369 33 503 95l73 34 55 52 56 53 34 70 35 71 16 75 16 75-6 90-6 90-14 45c-7 25-24 67-36 93l-23 49-47 51-48 52-56 34c-31 18-93 46-138 62l-83 28-95 16c-52 8-115 15-140 15l-45-1 60-30zm495 14c1-5 26-26 57-48l56-40 40-50c22-27 49-69 60-92l21-43h385l20 29 21 29 2 28c1 16 1 43 0 61l-2 32-32 37-33 37-32 13-32 14h-531v-7zm608-19c18-14 40-40 49-57l16-31 1-53v-52l-20-28c-11-15-90-81-175-145s-164-126-176-137l-23-19v-147l-21-75c-11-41-35-101-52-134l-31-59-51-51c-27-29-66-64-85-79l-35-26h450l-17 12c-9 7-30 20-47 29l-31 17-20 33-20 33v75l35 38c19 22 193 162 387 313 193 151 371 292 394 314l42 40 11 42 12 42-7 28c-11 43-32 70-69 87l-33 16h-517l33-26zm-25-821-191-3-31-36-31-35v-71l16-27c20-34 66-65 127-85l48-16h527l92 127c51 70 94 133 97 140l5 13-233-2c-129-2-320-4-426-5z"/></g><g fill="#6c6c6c" transform="matrix(.1 0 0 -.1 0 300)"><path d="M835 2064c-179-13-320-46-426-100l-71-35-42-40-43-39-32-59-31-60-20-77-20-77v-202l14-51c7-29 28-79 45-111l32-60 37-36c53-51 143-102 231-131 83-28 233-56 290-56l36 1-35 19c-139 76-240 203-300 380l-23 65-5 71-4 72 12 53 12 54 24 37 24 38 48 24c65 32 131 45 280 52l127 6 130-11 130-11 68-33c37-18 67-31 67-29s-14 32-32 66l-32 61-71 71-70 71-80 39-80 38-70 2c-38 1-92 0-120-2zm255 0c0-2 26-17 58-35l57-33 71-70 71-71 36-75c19-41 43-103 51-136l16-62v-179l-11-34c-7-19-23-49-36-67l-24-32-42-22c-23-11-64-27-92-35l-50-14-145-6-145-5-106 10-107 11-48 17c-27 9-61 25-77 36l-27 20 12-29c7-15 30-56 51-90l39-63 56-51 57-50 83-41 82-41 158 11c86 6 190 18 230 26 97 21 215 68 280 111l53 36 30 42c47 64 78 130 95 204l16 68-5 115-5 115-18 50c-9 28-31 73-49 100l-32 50-53 48-53 48-71 33-71 34-85 21c-71 18-250 42-250 35zm550-31c19-15 62-54 95-88l60-62 25-49 26-49 186-3 186-2 27 32 27 32-4 63-4 62-24 27c-14 15-43 35-65 45l-40 19-265-1h-265l35-26zm594-14c43-47 56-76 56-127v-37l-17-32-18-33-175-133-175-133-11-105-12-104-22-65c-12-36-37-91-56-122l-35-57-61-56c-34-30-65-55-70-55-4 0-8-4-8-10v-10l213 1h212l-19 12c-40 25-88 71-102 98-19 38-18 66 6 104l20 33 403 315 402 314 18 37 17 37v87l-26 31-25 30-37 11-37 10h-477l36-41zm-238-824c-11-8-28-27-38-42l-18-28v-58l26-35 27-34 56-27 56-26 275-3 276-3 97 135 97 136h-418l-417-1-19-14z"/></g><g fill="#0472be" transform="matrix(.1 0 0 -.1 0 300)"><path d="M835 2064c-179-13-320-46-426-100l-71-35-42-40-43-39-32-59-31-60-20-77-20-77v-202l14-51c7-29 28-79 45-111l32-60 37-36c53-51 143-102 231-131 83-28 233-56 290-56l36 1-35 19c-139 76-240 203-300 380l-23 65-5 71-4 72 12 53 12 54 24 37 24 38 48 24c65 32 131 45 280 52l127 6 130-11 130-11 68-33c37-18 67-31 67-29s-14 32-32 66l-32 61-71 71-70 71-80 39-80 38-70 2c-38 1-92 0-120-2zm255 0c0-2 26-17 58-35l57-33 71-70 71-71 36-75c19-41 43-103 51-136l16-62v-179l-11-34c-7-19-23-49-36-67l-24-32-42-22c-23-11-64-27-92-35l-50-14-145-6-145-5-106 10-107 11-48 17c-27 9-61 25-77 36l-27 20 12-29c7-15 30-56 51-90l39-63 56-51 57-50 83-41 82-41 158 11c86 6 190 18 230 26 97 21 215 68 280 111l53 36 30 42c47 64 78 130 95 204l16 68-5 115-5 115-18 50c-9 28-31 73-49 100l-32 50-53 48-53 48-71 33-71 34-85 21c-71 18-250 42-250 35zm575-46c22-17 61-54 86-80l46-49 24-49 24-49 193-1h192l20 33 20 32v77l-15 32-15 32-42 27-42 27h-531l40-32zm562 17c12-8 31-30 42-49l21-33v-121l-24-30c-14-15-101-86-194-157l-169-128-6-86-5-86-17-60c-32-121-100-227-191-298l-47-37h396l-41 30-41 30-16 29-15 30v75l58 56c32 30 216 179 411 330 194 151 361 285 372 298 10 14 24 43 31 64l12 40-15 40-14 41-35 18-35 19h-499l21-15zm-242-858-34-34-6-26-7-27 26-43 25-44 53-24 53-24 281-3 281-3 85 118c46 65 87 124 92 131l7 12h-823l-33-33z"/></g><g fill="#272727" transform="matrix(.1 0 0 -.1 0 300)"><path d="M1665 2018c22-17 61-54 86-80l46-49 24-49 24-49 193-1h192l20 33 20 32v77l-15 32-15 32-42 27-42 27h-531l40-32zm562 17c12-8 31-30 42-49l21-33v-121l-24-30c-14-15-101-86-194-157l-169-128-6-86-5-86-17-60c-32-121-100-227-191-298l-47-37h396l-41 30-41 30-16 29-15 30v75l58 56c32 30 216 179 411 330 194 151 361 285 372 298 10 14 24 43 31 64l12 40-15 40-14 41-35 18-35 19h-499l21-15zm-242-858-34-34-6-26-7-27 26-43 25-44 53-24 53-24 281-3 281-3 85 118c46 65 87 124 92 131l7 12h-823l-33-33z"/></g></g></svg>